/* XPM */
static char * letmenotifyu_xpm[] = {
"32 32 561 2",
"  	c None",
". 	c #797677",
"+ 	c #EBECEC",
"@ 	c #EDEDED",
"# 	c #F6F6F6",
"$ 	c #CECDCE",
"% 	c #9A9899",
"& 	c #989596",
"* 	c #938D8F",
"= 	c #767274",
"- 	c #9D9B9D",
"; 	c #EEEEEE",
"> 	c #F3F3F3",
", 	c #A7A6A6",
"' 	c #7A7879",
") 	c #CECDCD",
"! 	c #F0F0F0",
"~ 	c #F2F2F2",
"{ 	c #DEDEDE",
"] 	c #747172",
"^ 	c #383335",
"/ 	c #403C3E",
"( 	c #494547",
"_ 	c #343132",
": 	c #201F1F",
"< 	c #E7E7E7",
"[ 	c #D5D5D5",
"} 	c #C3C2C2",
"| 	c #888486",
"1 	c #5E5A5B",
"2 	c #3F3A3C",
"3 	c #807D7F",
"4 	c #DEDDDD",
"5 	c #B0AEAF",
"6 	c #696768",
"7 	c #312F30",
"8 	c #2B2729",
"9 	c #1F1D1E",
"0 	c #848183",
"a 	c #9A9798",
"b 	c #C3C1C1",
"c 	c #E8E8E8",
"d 	c #ECECEC",
"e 	c #F9F9F9",
"f 	c #898586",
"g 	c #545152",
"h 	c #706F6F",
"i 	c #5F5C5D",
"j 	c #444242",
"k 	c #EBEBEB",
"l 	c #ECEBEB",
"m 	c #B6B5B6",
"n 	c #554F51",
"o 	c #322E30",
"p 	c #1F181B",
"q 	c #726F70",
"r 	c #898889",
"s 	c #4D4B4C",
"t 	c #434142",
"u 	c #555253",
"v 	c #ACA9AA",
"w 	c #FCFCFC",
"x 	c #FDFDFD",
"y 	c #D4CFD0",
"z 	c #4E494A",
"A 	c #888687",
"B 	c #A3A0A1",
"C 	c #ABAAAA",
"D 	c #DDDDDD",
"E 	c #FFFFFF",
"F 	c #D0CFCF",
"G 	c #322F30",
"H 	c #181515",
"I 	c #010000",
"J 	c #000000",
"K 	c #8D898B",
"L 	c #E7E6E6",
"M 	c #ECEBEC",
"N 	c #A6A4A5",
"O 	c #A2A1A1",
"P 	c #F6F3F4",
"Q 	c #CFCDCE",
"R 	c #9E9A9B",
"S 	c #666061",
"T 	c #211E1F",
"U 	c #241F21",
"V 	c #221F20",
"W 	c #484647",
"X 	c #252424",
"Y 	c #393939",
"Z 	c #5C5B5B",
"` 	c #656263",
" .	c #929091",
"..	c #B3B2B2",
"+.	c #928D8E",
"@.	c #C5C3C3",
"#.	c #EDECEC",
"$.	c #443E40",
"%.	c #3E383A",
"&.	c #D6D6D6",
"*.	c #E1E3E3",
"=.	c #757374",
"-.	c #615E5F",
";.	c #646061",
">.	c #6C6869",
",.	c #514D4E",
"'.	c #464344",
").	c #7D7A7B",
"!.	c #E5E5E5",
"~.	c #F3F1F1",
"{.	c #A19C9D",
"].	c #939091",
"^.	c #FBFBFA",
"/.	c #7D787A",
"(.	c #281D22",
"_.	c #655E61",
":.	c #565456",
"<.	c #3F3D3E",
"[.	c #594545",
"}.	c #72494A",
"|.	c #5D2425",
"1.	c #5B1A1C",
"2.	c #4E0B0B",
"3.	c #4A4B4C",
"4.	c #4B4648",
"5.	c #4A4547",
"6.	c #434041",
"7.	c #7E797B",
"8.	c #E5E4E4",
"9.	c #FAFAFA",
"0.	c #DFDEDF",
"a.	c #2C2328",
"b.	c #21171C",
"c.	c #E9E8E9",
"d.	c #B4B6B6",
"e.	c #454245",
"f.	c #4F4648",
"g.	c #8C6F6F",
"h.	c #764B4C",
"i.	c #6F2F31",
"j.	c #8C3D40",
"k.	c #B54A50",
"l.	c #D05C64",
"m.	c #DE6A70",
"n.	c #E13D45",
"o.	c #CD040B",
"p.	c #920000",
"q.	c #656061",
"r.	c #555152",
"s.	c #353032",
"t.	c #150E10",
"u.	c #B3B0B1",
"v.	c #E9EAEB",
"w.	c #3C393D",
"x.	c #39373A",
"y.	c #604C4D",
"z.	c #6F4748",
"A.	c #693738",
"B.	c #854446",
"C.	c #9F4E4F",
"D.	c #C06569",
"E.	c #D87F86",
"F.	c #E6888B",
"G.	c #EC848A",
"H.	c #F47883",
"I.	c #F4797F",
"J.	c #F24B58",
"K.	c #F20C14",
"L.	c #F00107",
"M.	c #E20106",
"N.	c #B60005",
"O.	c #643F40",
"P.	c #3E3C3C",
"Q.	c #3D393A",
"R.	c #332F30",
"S.	c #4A3637",
"T.	c #3D1215",
"U.	c #5B1E1F",
"V.	c #873E3F",
"W.	c #B0585A",
"X.	c #CF797A",
"Y.	c #E39093",
"Z.	c #EE9699",
"`.	c #F39599",
" +	c #F59599",
".+	c #F78D95",
"++	c #F98794",
"@+	c #F8838B",
"#+	c #F97E89",
"$+	c #F7626F",
"%+	c #F71D2F",
"&+	c #F70D1C",
"*+	c #F60B18",
"=+	c #F50913",
"-+	c #EA0309",
";+	c #C90106",
">+	c #6F2223",
",+	c #434444",
"'+	c #282526",
")+	c #C57C7F",
"!+	c #E09090",
"~+	c #ED9495",
"{+	c #F39798",
"]+	c #F6999A",
"^+	c #F8999B",
"/+	c #F9969A",
"(+	c #F99499",
"_+	c #FA9198",
":+	c #F98994",
"<+	c #F98793",
"[+	c #FA818E",
"}+	c #F97989",
"|+	c #F8394F",
"1+	c #F8162E",
"2+	c #F8182F",
"3+	c #F71528",
"4+	c #F81323",
"5+	c #F70F1E",
"6+	c #EF0A16",
"7+	c #D40004",
"8+	c #820205",
"9+	c #595A5B",
"0+	c #615B5C",
"a+	c #CB7579",
"b+	c #EE9495",
"c+	c #F79698",
"d+	c #F99699",
"e+	c #F99599",
"f+	c #FA9399",
"g+	c #FA9197",
"h+	c #F98D95",
"i+	c #FA8993",
"j+	c #FB8693",
"k+	c #FA8293",
"l+	c #F96075",
"m+	c #F82545",
"n+	c #F82644",
"o+	c #F82541",
"p+	c #F8213D",
"q+	c #F81C35",
"r+	c #F71425",
"s+	c #F50F1D",
"t+	c #DD050F",
"u+	c #A10000",
"v+	c #584D4D",
"w+	c #5F6162",
"x+	c #B06164",
"y+	c #ED9394",
"z+	c #F79295",
"A+	c #FA9095",
"B+	c #FA8D94",
"C+	c #FA8A94",
"D+	c #FB8792",
"E+	c #FB8793",
"F+	c #FA8091",
"G+	c #FA7E92",
"H+	c #F94867",
"I+	c #F92E52",
"J+	c #FA3157",
"K+	c #F93054",
"L+	c #F82B4D",
"M+	c #F92644",
"N+	c #F9203D",
"O+	c #F81A31",
"P+	c #F81528",
"Q+	c #E50E1A",
"R+	c #BB0106",
"S+	c #5D3232",
"T+	c #363233",
"U+	c #5B5B5C",
"V+	c #995659",
"W+	c #E58B8B",
"X+	c #F78891",
"Y+	c #FA8690",
"Z+	c #F9858F",
"`+	c #FA818D",
" @	c #FA7E8E",
".@	c #F97C8E",
"+@	c #FA798E",
"@@	c #F93F62",
"#@	c #FA3F67",
"$@	c #FA456E",
"%@	c #FA4972",
"&@	c #FA3F66",
"*@	c #F9345A",
"=@	c #F82A4B",
"-@	c #F8213E",
";@	c #F71A32",
">@	c #EE1224",
",@	c #CC0711",
"'@	c #6E1718",
")@	c #292728",
"!@	c #464545",
"~@	c #7B4749",
"{@	c #E48588",
"]@	c #F47E87",
"^@	c #F97E87",
"/@	c #F97B87",
"(@	c #F97888",
"_@	c #F87889",
":@	c #F97587",
"<@	c #F93F65",
"[@	c #FA4D76",
"}@	c #FB5782",
"|@	c #FC608C",
"1@	c #FC6691",
"2@	c #FB618D",
"3@	c #F93C62",
"4@	c #F92D4F",
"5@	c #F8223E",
"6@	c #F3182D",
"7@	c #D70C19",
"8@	c #880002",
"9@	c #2A2C2E",
"0@	c #673F41",
"a@	c #DF777C",
"b@	c #EF767C",
"c@	c #F6737C",
"d@	c #F86F7E",
"e@	c #FA7082",
"f@	c #F96D81",
"g@	c #F94268",
"h@	c #FA537D",
"i@	c #FB658F",
"j@	c #FB749E",
"k@	c #FC7FA9",
"l@	c #FC86AF",
"m@	c #FB638E",
"n@	c #FA517A",
"o@	c #F93D62",
"p@	c #F82C4C",
"q@	c #F41E36",
"r@	c #E01222",
"s@	c #AA0106",
"t@	c #372527",
"u@	c #161515",
"v@	c #353132",
"w@	c #523B3C",
"x@	c #D2656C",
"y@	c #EC676F",
"z@	c #F76574",
"A@	c #F76675",
"B@	c #F8657C",
"C@	c #F94062",
"D@	c #FA5079",
"E@	c #FB6792",
"F@	c #FC7CA6",
"G@	c #FC8FB7",
"H@	c #FC9BC0",
"I@	c #FDA1C5",
"J@	c #FDA0C4",
"K@	c #FC9AC0",
"L@	c #FC8DB5",
"M@	c #FC7AA4",
"N@	c #FA4E76",
"O@	c #F93B5B",
"P@	c #F72741",
"Q@	c #E7182B",
"R@	c #BF060E",
"S@	c #4D1B1C",
"T@	c #1C191A",
"U@	c #2F2B2D",
"V@	c #494647",
"W@	c #BA464F",
"X@	c #E55463",
"Y@	c #F75768",
"Z@	c #F85A71",
"`@	c #F8405C",
" #	c #F9496F",
".#	c #FB638A",
"+#	c #FB79A3",
"@#	c #FC90B7",
"##	c #FDA3C6",
"$#	c #FDB1D1",
"%#	c #FDB8D7",
"&#	c #FDB7D6",
"*#	c #FDB0D0",
"=#	c #FC8EB6",
"-#	c #FB77A0",
";#	c #FB5E84",
">#	c #F84968",
",#	c #F8314E",
"'#	c #EE1D32",
")#	c #CE0B17",
"!#	c #6D0F10",
"~#	c #202021",
"{#	c #383B3C",
"]#	c #9A343A",
"^#	c #DF4B55",
"/#	c #F14B5B",
"(#	c #F7435B",
"_#	c #F83E5C",
":#	c #FA5577",
"<#	c #FB6E96",
"[#	c #FC89AF",
"}#	c #FC9FC3",
"|#	c #FDB4D2",
"1#	c #FDBEDA",
"2#	c #FEC7DF",
"3#	c #FDC5DD",
"4#	c #FDBCD9",
"5#	c #FDAECE",
"6#	c #FB9BBD",
"7#	c #FC82AA",
"8#	c #FB6C91",
"9#	c #F95271",
"0#	c #F73B56",
"a#	c #F1243B",
"b#	c #D90F1E",
"c#	c #8C0000",
"d#	c #2D2C2E",
"e#	c #262527",
"f#	c #792328",
"g#	c #DC3746",
"h#	c #EE4254",
"i#	c #F82D4A",
"j#	c #F84563",
"k#	c #FA6181",
"l#	c #FA799D",
"m#	c #FA90B3",
"n#	c #FCAAC9",
"o#	c #FCBBD7",
"p#	c #FDC7DF",
"q#	c #FCCDE2",
"r#	c #FDCCE2",
"s#	c #FDC3DB",
"t#	c #FCB5D1",
"u#	c #FCA2C3",
"v#	c #FA8DAE",
"w#	c #FA7293",
"x#	c #F95B78",
"y#	c #F83E59",
"z#	c #ED2B40",
"A#	c #D4111F",
"B#	c #9D0003",
"C#	c #382324",
"D#	c #1A1717",
"E#	c #221F21",
"F#	c #5D1F23",
"G#	c #CE2B36",
"H#	c #EE2739",
"I#	c #F8324E",
"J#	c #F84C67",
"K#	c #F96580",
"L#	c #F97E9E",
"M#	c #F999B7",
"N#	c #FCADCA",
"O#	c #FCBFD8",
"P#	c #FCCADE",
"Q#	c #FCCDE1",
"R#	c #FCC6DC",
"S#	c #FAB8D0",
"T#	c #F9A4C1",
"U#	c #F58FAC",
"V#	c #F07690",
"W#	c #E75D71",
"X#	c #E0414F",
"Y#	c #D22D3A",
"Z#	c #BC0F1A",
"`#	c #8B0000",
" $	c #3D1919",
".$	c #1D1A1B",
"+$	c #1E1B1D",
"@$	c #472021",
"#$	c #C31C27",
"$$	c #E71E2D",
"%$	c #F93350",
"&$	c #F96882",
"*$	c #FA7E9D",
"=$	c #FAACC8",
"-$	c #FBBCD4",
";$	c #FAC9DC",
">$	c #FBCCDF",
",$	c #FACBDE",
"'$	c #F6C7D8",
")$	c #F4B6CC",
"!$	c #ECA1B7",
"~$	c #E48D9C",
"{$	c #D97280",
"]$	c #BF5762",
"^$	c #98393F",
"/$	c #77292F",
"($	c #522021",
"_$	c #372021",
":$	c #2C2426",
"<$	c #1A1618",
"[$	c #382426",
"}$	c #B0080F",
"|$	c #DE1B2A",
"1$	c #F13249",
"2$	c #F34D61",
"3$	c #F3687C",
"4$	c #F17E91",
"5$	c #F292AB",
"6$	c #F0A8BF",
"7$	c #F2B9CC",
"8$	c #F3C9D7",
"9$	c #F7CBDB",
"0$	c #F4CFDB",
"a$	c #EECAD5",
"b$	c #D0A9B3",
"c$	c #A27B84",
"d$	c #765A5E",
"e$	c #4D3A3C",
"f$	c #2E2B2C",
"g$	c #383839",
"h$	c #454345",
"i$	c #4A4648",
"j$	c #4D4A4B",
"k$	c #524E50",
"l$	c #747272",
"m$	c #2B282A",
"n$	c #930104",
"o$	c #CB121F",
"p$	c #DB2F3D",
"q$	c #DE4855",
"r$	c #DE5969",
"s$	c #D77783",
"t$	c #DC8C97",
"u$	c #D89BAA",
"v$	c #C8A4AD",
"w$	c #A59398",
"x$	c #82767A",
"y$	c #544D4F",
"z$	c #2B2628",
"A$	c #353335",
"B$	c #484446",
"C$	c #4E4B4D",
"D$	c #4B494A",
"E$	c #373636",
"F$	c #222021",
"G$	c #1C1B1C",
"H$	c #28292B",
"I$	c #640404",
"J$	c #93060A",
"K$	c #951D24",
"L$	c #86393E",
"M$	c #764A4D",
"N$	c #5F4548",
"O$	c #41383A",
"P$	c #3A3839",
"Q$	c #494546",
"R$	c #585557",
"S$	c #6A6768",
"T$	c #6F6D6E",
"U$	c #595758",
"V$	c #3D3B3C",
"W$	c #242122",
"X$	c #262325",
"Y$	c #2F2123",
"Z$	c #30292A",
"`$	c #2A2B2D",
" %	c #413E40",
".%	c #423F40",
"+%	c #383537",
"@%	c #4E4C4C",
"#%	c #3F3C3E",
"$%	c #3A3738",
"%%	c #333132",
"&%	c #141212",
"*%	c #0C0B0B",
"                                              .                 ",
"                                        + @ # $                 ",
"                                  % & * = - ; > ,               ",
"                          ' ) > ! ~ { ] ^ / ( _ :               ",
"                    < [ } | 1 2 3 4 5 6 7 8 9                   ",
"              0 a b c d ~ e f g h i j                           ",
"        k ; l m n o p q r s t u             v w x y             ",
"  z A B C D > E F G H I J s     K L e M N O P w Q R             ",
"  S n T U V W X Y Z `  .E E ..+.@.w #.$.%.&.E *.=.-.            ",
"  ;.>.,.'.).!.E ~.{.].^.E /.(._.E E :.<.[.}.|.1.2.3.            ",
"  4.5.6.7.8.9.0.a.b.c.E d.e.f.g.h.i.j.k.l.m.n.o.p.q.            ",
"  r.s.t.u.E v.w.x.y.z.A.B.C.D.E.F.G.H.I.J.K.L.M.N.O.P.          ",
"    Q.R.S.T.U.V.W.X.Y.Z.`. +.+++@+#+$+%+&+*+=+-+;+>+,+          ",
"    '+S.)+!+~+{+]+^+/+(+_+:+<+[+}+|+1+2+3+4+5+6+7+8+9+          ",
"      0+a+b+c+d+e+f+g+h+i+j+k+l+m+n+o+p+q+2+r+s+t+u+v+          ",
"      w+x+y+z+A+B+C+D+E+F+G+H+I+J+J+K+L+M+N+O+P+Q+R+S+T+        ",
"      U+V+W+X+Y+Z+`+ @.@+@@@#@$@%@%@$@&@*@=@-@;@>@,@'@)@        ",
"      !@~@{@]@^@/@(@_@:@<@[@}@|@1@1@2@}@[@3@4@5@6@7@8@9@        ",
"      6.0@a@b@c@d@e@f@g@h@i@j@k@l@l@k@j@m@n@o@p@q@r@s@t@u@      ",
"      v@w@x@y@z@A@B@C@D@E@F@G@H@I@J@K@L@M@i@N@O@P@Q@R@S@T@      ",
"      U@V@W@X@Y@Z@`@ #.#+#@###$#%#&#*#J@=#-#;#>#,#'#)#!#~#      ",
"        {#]#^#/#(#_#:#<#[#}#|#1#2#3#4#5#6#7#8#9#0#a#b#c#d#      ",
"        e#f#g#h#i#j#k#l#m#n#o#p#q#r#s#t#u#v#w#x#y#z#A#B#C#D#    ",
"        E#F#G#H#I#J#K#L#M#N#O#P#r#Q#R#S#T#U#V#W#X#Y#Z#`# $.$    ",
"        +$@$#$$$%$J#&$*$M#=$-$;$>$,$'$)$!$~${$]$^$/$($_$:$'+    ",
"        <$[$}$|$1$2$3$4$5$6$7$8$9$0$a$b$c$d$e$f$g$h$i$j$k$l$    ",
"          m$n$o$p$q$r$s$t$u$v$w$x$y$z$A$B$C$s D$E$F$G$          ",
"          H$I$J$K$L$M$N$O$e#P$Q$R$S$T$U$V$W$                    ",
"          X$Y$Z$`$ %.%<. %t V$+%                                ",
"          @%#%$%%%&%*%                                          ",
"                                                                ",
"                                                                "};
